<svg width="320" height="320" viewBox="0 0 320 320" fill="none" xmlns="http://www.w3.org/2000/svg">
<rect width="320" height="320" fill="url(#paint0_linear_5778_1569)"/>
<g filter="url(#filter0_d_5778_1569)">
<path d="M157.434 67.2868L141.471 83.2631C140.081 84.654 140.081 86.9064 141.471 88.2911L210.605 157.483C211.995 158.874 211.995 161.126 210.605 162.511L141.471 231.703C140.081 233.094 140.081 235.346 141.471 236.731L157.44 252.713C158.83 254.104 161.081 254.104 162.464 252.713L252.591 162.511C253.981 161.12 253.981 158.868 252.591 157.483L162.458 67.2868C161.068 65.8959 158.818 65.8959 157.434 67.2868Z" fill="url(#paint1_linear_5778_1569)"/>
<path d="M109.293 157.489L146.163 120.589C147.553 119.198 147.553 116.945 146.163 115.561L130.2 99.5843C128.81 98.1934 126.56 98.1934 125.176 99.5843L67.3069 157.489C65.9172 158.88 65.9172 161.133 67.3069 162.517L125.182 220.441C126.572 221.832 128.822 221.832 130.206 220.441L146.175 204.458C147.565 203.067 147.565 200.815 146.175 199.43L109.293 162.517C107.903 161.126 107.903 158.874 109.293 157.489Z" fill="url(#paint2_linear_5778_1569)"/>
</g>
<defs>
<filter id="filter0_d_5778_1569" x="59.2329" y="65.0717" width="201.433" height="201.576" filterUnits="userSpaceOnUse" color-interpolation-filters="sRGB">
<feFlood flood-opacity="0" result="BackgroundImageFix"/>
<feColorMatrix in="SourceAlpha" type="matrix" values="0 0 0 0 0 0 0 0 0 0 0 0 0 0 0 0 0 0 127 0" result="hardAlpha"/>
<feOffset dy="5.85978"/>
<feGaussianBlur stdDeviation="3.51587"/>
<feComposite in2="hardAlpha" operator="out"/>
<feColorMatrix type="matrix" values="0 0 0 0 0.531982 0 0 0 0 0.338138 0 0 0 0 0.0990627 0 0 0 0.25 0"/>
<feBlend mode="normal" in2="BackgroundImageFix" result="effect1_dropShadow_5778_1569"/>
<feBlend mode="normal" in="SourceGraphic" in2="effect1_dropShadow_5778_1569" result="shape"/>
</filter>
<linearGradient id="paint0_linear_5778_1569" x1="-13" y1="64" x2="400.5" y2="116" gradientUnits="userSpaceOnUse">
<stop stop-color="#FFFDF7"/>
<stop offset="0.262528" stop-color="#FBE9CA"/>
<stop offset="0.496978" stop-color="#FEEEBB"/>
<stop offset="0.798967" stop-color="#FED65B"/>
<stop offset="1" stop-color="#FFFDF7"/>
</linearGradient>
<linearGradient id="paint1_linear_5778_1569" x1="219.403" y1="66.2437" x2="142.724" y2="345.68" gradientUnits="userSpaceOnUse">
<stop stop-color="#543611"/>
<stop offset="1" stop-color="#221402"/>
</linearGradient>
<linearGradient id="paint2_linear_5778_1569" x1="219.403" y1="66.2437" x2="142.724" y2="345.68" gradientUnits="userSpaceOnUse">
<stop stop-color="#543611"/>
<stop offset="1" stop-color="#221402"/>
</linearGradient>
</defs>
</svg>
