<svg width="320" height="124" viewBox="0 0 320 124" fill="none" xmlns="http://www.w3.org/2000/svg">
<path d="M60.465 31.345L55.125 36.685C54.665 37.145 54.665 37.895 55.125 38.365L78.235 61.475C78.695 61.935 78.695 62.685 78.235 63.155L55.125 86.265C54.665 86.725 54.665 87.475 55.125 87.945L60.465 93.285C60.925 93.745 61.675 93.745 62.145 93.285L92.275 63.155C92.735 62.695 92.735 61.945 92.275 61.475L62.145 31.345C61.685 30.885 60.935 30.885 60.465 31.345Z" fill="black"/>
<path d="M44.375 61.465L56.695 49.145C57.155 48.685 57.155 47.935 56.695 47.465L51.355 42.125C50.895 41.665 50.145 41.665 49.675 42.125L30.345 61.465C29.885 61.925 29.885 62.675 30.345 63.145L49.685 82.495C50.145 82.955 50.895 82.955 51.365 82.495L56.705 77.155C57.165 76.695 57.165 75.945 56.705 75.475L44.375 63.145C43.915 62.685 43.915 61.935 44.375 61.465Z" fill="black"/>
<path d="M254.505 102.485C251.925 102.485 250.205 102.225 248.305 101.965L249.595 93.265C251.405 93.605 253.035 93.8651 254.765 93.8651C259.415 93.8651 261.745 92.8351 264.325 86.7151L247.965 46.9351H258.125L263.375 61.5751C265.015 66.2251 267.255 72.3351 269.145 77.8551H269.405C271.295 72.1751 273.365 66.4051 274.825 61.7551L279.565 46.9451H289.555L272.935 87.845C268.805 98.005 263.805 102.485 254.505 102.485Z" fill="black"/>
<path d="M225.675 80.095C232.305 80.095 236.435 75.615 236.435 67.605V66.915C236.435 59.165 232.305 54.175 225.675 54.175C218.615 54.175 215.165 58.995 215.165 67.355C215.165 75.715 218.435 80.095 225.675 80.095ZM236.435 87.415V75.965H236.265C234.455 84.145 229.725 88.535 221.885 88.535C211.375 88.535 205.955 80.445 205.955 67.355C205.955 54.265 211.725 45.825 221.885 45.915C229.975 45.825 234.545 50.225 236.355 58.575H236.445V34.635H245.745V87.425H236.445L236.435 87.415Z" fill="black"/>
<path d="M174.935 63.475V87.415H165.635V46.945H174.935V58.055H175.025C176.835 49.445 182.005 45.915 188.805 45.915C198.535 45.915 202.235 52.285 202.235 61.075V87.425H192.935V63.485C192.935 58.575 190.785 54.275 184.495 54.275C178.555 54.275 174.935 57.715 174.935 63.485V63.475Z" fill="black"/>
<path d="M159.315 41.515H149.245V34.625H159.315V41.515ZM158.975 87.415H149.675V46.945H158.975V87.415Z" fill="black"/>
<path d="M122.815 35.745V78.115H146.155V87.415H113.005V35.745H122.825H122.815Z" fill="black"/>
</svg>
