<svg width="320" height="320" viewBox="0 0 320 320" fill="none" xmlns="http://www.w3.org/2000/svg">
<path d="M157.139 54.5202L138.978 72.6964C137.396 74.2788 137.396 76.8414 138.978 78.4168L217.632 157.136C219.213 158.719 219.213 161.281 217.632 162.857L138.978 241.576C137.396 243.159 137.396 245.721 138.978 247.297L157.146 265.48C158.727 267.062 161.287 267.062 162.861 265.48L265.399 162.857C266.98 161.274 266.98 158.712 265.399 157.136L162.854 54.5202C161.273 52.9378 158.713 52.9378 157.139 54.5202Z" fill="white"/>
<path d="M102.368 157.144L144.315 115.162C145.896 113.579 145.896 111.017 144.315 109.441L126.154 91.265C124.573 89.6827 122.013 89.6827 120.439 91.265L54.6009 157.144C53.0198 158.726 53.0198 161.289 54.6009 162.864L120.446 228.763C122.027 230.346 124.587 230.346 126.161 228.763L144.329 210.58C145.91 208.998 145.91 206.435 144.329 204.86L102.368 162.864C100.787 161.282 100.787 158.719 102.368 157.144Z" fill="white"/>
</svg>
